<svg width="20" height="22" viewBox="0 0 20 22" fill="none" xmlns="http://www.w3.org/2000/svg">
    <path d="M19.107 18.364 18.02 7.808a.858.858 0 0 0-.853-.77H2.862a.858.858 0 0 0-.853.768L.893 18.367a3.308 3.308 0 0 0 .842 2.542A3.305 3.305 0 0 0 4.178 22h11.673c.92 0 1.802-.39 2.419-1.07.625-.69.93-1.623.837-2.566zM17 19.777a1.531 1.531 0 0 1-1.148.506H4.179c-.441 0-.868-.192-1.17-.526a1.585 1.585 0 0 1-.409-1.214l1.035-9.789h12.757l1.008 9.782a1.59 1.59 0 0 1-.401 1.24z" fill="#fff" fill-opacity=".8"/>
    <path d="M10.157 0a4.926 4.926 0 0 0-4.92 4.92v2.976h1.716V4.921a3.208 3.208 0 0 1 3.204-3.204 3.208 3.208 0 0 1 3.205 3.204v2.975h1.716V4.921A4.926 4.926 0 0 0 10.158 0z" fill="#fff" fill-opacity=".8"/>
</svg>
