<svg width="19" height="23" viewBox="0 0 19 23" fill="none" xmlns="http://www.w3.org/2000/svg">
    <path d="M9.348 5.308c1.008 0 2.27-.702 3.022-1.638.681-.848 1.178-2.032 1.178-3.217 0-.16-.015-.321-.043-.453-1.12.044-2.468.775-3.277 1.755-.638.745-1.22 1.915-1.22 3.114 0 .176.028.351.043.41.07.014.184.029.297.029zM5.802 23c1.376 0 1.986-.95 3.703-.95 1.744 0 2.127.92 3.66.92 1.503 0 2.51-1.432 3.46-2.836 1.065-1.608 1.505-3.187 1.533-3.26-.1-.03-2.98-1.243-2.98-4.65 0-2.954 2.27-4.284 2.398-4.387-1.503-2.222-3.787-2.28-4.412-2.28-1.688 0-3.064 1.052-3.929 1.052-.936 0-2.17-.994-3.632-.994C2.823 5.615 0 7.983 0 12.458c0 2.778 1.05 5.717 2.34 7.618C3.448 21.684 4.413 23 5.803 23z" fill="#fff" fill-opacity=".8"/>
</svg>
